<svg width="32" height="33" viewBox="0 0 32 33" fill="none" xmlns="http://www.w3.org/2000/svg">
<g clip-path="url(#clip0_2001_302)">
<path d="M26.5 4.5H21V3.5C21 1.84312 19.6569 0.5 18 0.5H14C12.3431 0.5 11 1.84312 11 3.5V4.5H5.5C4.11931 4.5 3 5.61931 3 7V9C3 9.55231 3.44769 10 4 10H28C28.5523 10 29 9.55231 29 9V7C29 5.61931 27.8807 4.5 26.5 4.5ZM13 3.5C13 2.94875 13.4487 2.5 14 2.5H18C18.5513 2.5 19 2.94875 19 3.5V4.5H13V3.5ZM4.89775 12C4.85546 12 4.81361 12.0086 4.77474 12.0252C4.73587 12.0419 4.70078 12.0663 4.67159 12.0969C4.64241 12.1275 4.61975 12.1637 4.60497 12.2033C4.59019 12.2429 4.58361 12.2851 4.58563 12.3274L5.41062 29.6425C5.48688 31.245 6.80312 32.5 8.40687 32.5H23.5931C25.1969 32.5 26.5131 31.245 26.5894 29.6425L27.4144 12.3274C27.4164 12.2851 27.4098 12.2429 27.395 12.2033C27.3803 12.1637 27.3576 12.1275 27.3284 12.0969C27.2992 12.0663 27.2641 12.0419 27.2253 12.0252C27.1864 12.0086 27.1445 12 27.1022 12H4.89775ZM20 14.5C20 13.9475 20.4475 13.5 21 13.5C21.5525 13.5 22 13.9475 22 14.5V27.5C22 28.0525 21.5525 28.5 21 28.5C20.4475 28.5 20 28.0525 20 27.5V14.5ZM15 14.5C15 13.9475 15.4475 13.5 16 13.5C16.5525 13.5 17 13.9475 17 14.5V27.5C17 28.0525 16.5525 28.5 16 28.5C15.4475 28.5 15 28.0525 15 27.5V14.5ZM10 14.5C10 13.9475 10.4475 13.5 11 13.5C11.5525 13.5 12 13.9475 12 14.5V27.5C12 28.0525 11.5525 28.5 11 28.5C10.4475 28.5 10 28.0525 10 27.5V14.5Z" fill="#B2C7EE"/>
</g>
<defs>
<clipPath id="clip0_2001_302">
<rect width="32" height="32" fill="white" transform="translate(0 0.5)"/>
</clipPath>
</defs>
</svg>
