<svg width="151" height="31" viewBox="0 0 151 31" fill="none" xmlns="http://www.w3.org/2000/svg">
<path d="M32.065 30.5H9.97C2.5 30.5 0.0700002 27.215 0.0700002 20.6V0.0799974H8.26V19.835C8.26 22.04 8.845 22.715 10.96 22.715H32.065V30.5ZM55.8261 30.5H49.4361C43.9911 30.5 39.9861 28.61 37.1961 25.55C34.7661 22.895 33.2811 19.295 33.2811 15.29C33.2811 10.88 35.1711 6.875 38.1861 4.085C40.8861 1.61 44.5311 0.0799974 49.4361 0.0799974H55.8261C60.7311 0.0799974 64.3761 1.61 67.0761 4.085C70.0911 6.875 71.9811 10.88 71.9811 15.29C71.9811 19.295 70.4961 22.895 68.0661 25.55C65.2761 28.61 61.2711 30.5 55.8261 30.5ZM55.8261 8.135H49.4361C46.6911 8.135 44.9811 8.9 43.6761 10.115C42.2811 11.42 41.4261 13.31 41.4261 15.335C41.4261 17.18 42.1461 18.89 43.3161 20.15C44.6211 21.59 46.5561 22.49 49.4361 22.49H55.8261C58.7061 22.49 60.6411 21.59 61.9461 20.15C63.1161 18.89 63.8361 17.18 63.8361 15.335C63.8361 13.31 62.9811 11.42 61.5861 10.115C60.2811 8.9 58.5711 8.135 55.8261 8.135ZM105.895 30.5H91.3599C85.9149 30.5 81.9099 28.61 79.1199 25.55C76.6899 22.895 75.2049 19.295 75.2049 15.29C75.2049 10.88 77.0949 6.875 80.1099 4.085C82.8099 1.61 86.4549 0.0799974 91.3599 0.0799974H107.785V8.135H91.3599C88.6149 8.135 86.9049 8.9 85.5999 10.115C84.2049 11.42 83.3499 13.31 83.3499 15.335C83.3499 17.18 84.0699 18.89 85.2399 20.15C86.5449 21.59 88.4799 22.625 91.3599 22.625H99.1449C99.5499 22.625 99.7299 22.445 99.7299 21.995V13.85H107.83V28.565C107.83 29.87 107.2 30.5 105.895 30.5ZM134.049 30.5H127.659C122.214 30.5 118.209 28.61 115.419 25.55C112.989 22.895 111.504 19.295 111.504 15.29C111.504 10.88 113.394 6.875 116.409 4.085C119.109 1.61 122.754 0.0799974 127.659 0.0799974H134.049C138.954 0.0799974 142.599 1.61 145.299 4.085C148.314 6.875 150.204 10.88 150.204 15.29C150.204 19.295 148.719 22.895 146.289 25.55C143.499 28.61 139.494 30.5 134.049 30.5ZM134.049 8.135H127.659C124.914 8.135 123.204 8.9 121.899 10.115C120.504 11.42 119.649 13.31 119.649 15.335C119.649 17.18 120.369 18.89 121.539 20.15C122.844 21.59 124.779 22.49 127.659 22.49H134.049C136.929 22.49 138.864 21.59 140.169 20.15C141.339 18.89 142.059 17.18 142.059 15.335C142.059 13.31 141.204 11.42 139.809 10.115C138.504 8.9 136.794 8.135 134.049 8.135Z" fill="#F5FF78"/>
</svg>
